G04 (created by PCBNEW (2013-07-07 BZR 4022)-stable) date 7/4/2017 7:52:43 PM*
%MOIN*%
G04 Gerber Fmt 3.4, Leading zero omitted, Abs format*
%FSLAX34Y34*%
G01*
G70*
G90*
G04 APERTURE LIST*
%ADD10C,0.00590551*%
%ADD11R,0.025X0.045*%
%ADD12R,0.045X0.025*%
%ADD13R,0.0591X0.01*%
%ADD14R,0.01X0.0591*%
%ADD15C,0.06*%
%ADD16R,0.06X0.06*%
%ADD17R,0.045X0.02*%
%ADD18R,0.02X0.045*%
%ADD19R,0.06X0.08*%
%ADD20R,0.0394X0.0236*%
%ADD21R,0.055X0.055*%
%ADD22C,0.055*%
%ADD23R,0.067X0.032*%
%ADD24R,0.03X0.08*%
%ADD25R,0.08X0.03*%
%ADD26C,0.066*%
%ADD27R,0.039X0.09*%
G04 APERTURE END LIST*
G54D10*
G54D11*
X62500Y-27125D03*
X63100Y-27125D03*
X49750Y-45825D03*
X50350Y-45825D03*
X50425Y-48200D03*
X49825Y-48200D03*
X52400Y-49700D03*
X51800Y-49700D03*
X50425Y-50200D03*
X49825Y-50200D03*
X50425Y-51050D03*
X49825Y-51050D03*
X50425Y-49525D03*
X49825Y-49525D03*
X50425Y-48850D03*
X49825Y-48850D03*
G54D12*
X50425Y-47100D03*
X50425Y-46500D03*
G54D11*
X53925Y-37375D03*
X54525Y-37375D03*
X53400Y-37375D03*
X52800Y-37375D03*
G54D13*
X54574Y-48381D03*
X54574Y-48184D03*
X54574Y-47987D03*
X54574Y-47791D03*
X54574Y-47594D03*
X54574Y-47397D03*
X54574Y-47201D03*
X54574Y-47004D03*
X54574Y-46807D03*
X54574Y-46611D03*
X54574Y-46414D03*
X54574Y-46217D03*
G54D14*
X53983Y-45626D03*
X53786Y-45626D03*
X53589Y-45626D03*
X53393Y-45626D03*
X53196Y-45626D03*
X52999Y-45626D03*
X52803Y-45626D03*
X52606Y-45626D03*
X52409Y-45626D03*
X52213Y-45626D03*
X52016Y-45626D03*
X51819Y-45626D03*
G54D13*
X51228Y-46217D03*
X51228Y-46414D03*
X51228Y-46611D03*
X51228Y-46807D03*
X51228Y-47004D03*
X51228Y-47201D03*
X51228Y-47397D03*
X51228Y-47594D03*
X51228Y-47791D03*
X51228Y-47987D03*
X51228Y-48184D03*
X51228Y-48381D03*
G54D14*
X51819Y-48972D03*
X52016Y-48972D03*
X52213Y-48972D03*
X52409Y-48972D03*
X52606Y-48972D03*
X52803Y-48972D03*
X52999Y-48972D03*
X53196Y-48972D03*
X53393Y-48972D03*
X53589Y-48972D03*
X53786Y-48972D03*
X53983Y-48972D03*
G54D15*
X47900Y-31900D03*
X47900Y-30900D03*
X47900Y-29900D03*
X47900Y-28900D03*
X48900Y-40900D03*
X48900Y-39900D03*
X48900Y-38900D03*
X48900Y-37900D03*
X48900Y-36900D03*
X47900Y-40900D03*
X48900Y-35900D03*
X47900Y-39900D03*
X48900Y-34900D03*
X47900Y-38900D03*
X48900Y-33900D03*
X47900Y-37900D03*
X48900Y-32900D03*
X47900Y-36900D03*
X48900Y-31900D03*
X47900Y-35900D03*
X48900Y-30900D03*
X47900Y-34900D03*
X48900Y-29900D03*
X47900Y-33900D03*
X48900Y-28900D03*
X47900Y-32900D03*
X48900Y-27900D03*
G54D16*
X47900Y-27900D03*
X66700Y-40900D03*
G54D15*
X65700Y-40900D03*
X66700Y-35900D03*
X65700Y-39900D03*
X66700Y-34900D03*
X65700Y-38900D03*
X66700Y-33900D03*
X65700Y-37900D03*
X66700Y-32900D03*
X65700Y-36900D03*
X66700Y-31900D03*
X65700Y-35900D03*
X66700Y-30900D03*
X65700Y-34900D03*
X66700Y-29900D03*
X65700Y-33900D03*
X66700Y-28900D03*
X65700Y-32900D03*
X66700Y-27900D03*
X65700Y-31900D03*
X65700Y-30900D03*
X65700Y-29900D03*
X65700Y-28900D03*
X65700Y-27900D03*
X66700Y-39900D03*
X66700Y-38900D03*
X66700Y-37900D03*
X66700Y-36900D03*
X59800Y-25000D03*
X60800Y-25000D03*
X61800Y-25000D03*
X62800Y-25000D03*
X50800Y-26000D03*
X51800Y-26000D03*
X52800Y-26000D03*
X53800Y-26000D03*
X54800Y-26000D03*
X50800Y-25000D03*
X55800Y-26000D03*
X51800Y-25000D03*
X56800Y-26000D03*
X52800Y-25000D03*
X57800Y-26000D03*
X53800Y-25000D03*
X58800Y-26000D03*
X54800Y-25000D03*
X59800Y-26000D03*
X55800Y-25000D03*
X60800Y-26000D03*
X56800Y-25000D03*
X61800Y-26000D03*
X57800Y-25000D03*
X62800Y-26000D03*
X58800Y-25000D03*
X63800Y-26000D03*
G54D16*
X63800Y-25000D03*
X50800Y-43800D03*
G54D15*
X50800Y-42800D03*
X55800Y-43800D03*
X51800Y-42800D03*
X56850Y-43800D03*
X52800Y-42800D03*
X57800Y-43800D03*
X53800Y-42800D03*
X58800Y-43800D03*
X54800Y-42800D03*
X59800Y-43800D03*
X55800Y-42800D03*
X60800Y-43800D03*
X56800Y-42800D03*
X61800Y-43800D03*
X57800Y-42800D03*
X62800Y-43800D03*
X58800Y-42800D03*
X63800Y-43800D03*
X59800Y-42800D03*
X60800Y-42800D03*
X61800Y-42800D03*
X62800Y-42800D03*
X63800Y-42800D03*
X51800Y-43800D03*
X52800Y-43800D03*
X53800Y-43800D03*
X54800Y-43800D03*
G54D17*
X61750Y-46200D03*
X59650Y-46200D03*
X61750Y-46700D03*
X61750Y-47200D03*
X61750Y-47700D03*
X59650Y-46700D03*
X59650Y-47200D03*
X59650Y-47700D03*
X61750Y-49175D03*
X59650Y-49175D03*
X61750Y-49675D03*
X61750Y-50175D03*
X61750Y-50675D03*
X59650Y-49675D03*
X59650Y-50175D03*
X59650Y-50675D03*
G54D11*
X55350Y-50200D03*
X54750Y-50200D03*
G54D12*
X64450Y-41650D03*
X64450Y-41050D03*
G54D11*
X63600Y-40450D03*
X63000Y-40450D03*
X61750Y-48525D03*
X61150Y-48525D03*
X61750Y-45525D03*
X61150Y-45525D03*
G54D12*
X53125Y-41325D03*
X53125Y-40725D03*
G54D11*
X59650Y-51325D03*
X60250Y-51320D03*
X57900Y-48750D03*
X58500Y-48750D03*
X66200Y-42900D03*
X65600Y-42900D03*
X66200Y-43610D03*
X65600Y-43610D03*
X63650Y-48750D03*
X64250Y-48750D03*
X55350Y-51400D03*
X54750Y-51400D03*
X54000Y-28650D03*
X54600Y-28650D03*
X61450Y-41575D03*
X62050Y-41575D03*
X59950Y-36575D03*
X59350Y-36575D03*
X54500Y-32150D03*
X53900Y-32150D03*
X58200Y-41650D03*
X57600Y-41650D03*
X53250Y-32150D03*
X52650Y-32150D03*
X54500Y-32900D03*
X53900Y-32900D03*
G54D18*
X52800Y-29350D03*
X52800Y-31450D03*
X53300Y-29350D03*
X53800Y-29350D03*
X54300Y-29350D03*
X53300Y-31450D03*
X53800Y-31450D03*
X54300Y-31450D03*
G54D19*
X53850Y-27450D03*
X52550Y-27450D03*
G54D12*
X49125Y-46500D03*
X49125Y-47100D03*
G54D20*
X63716Y-41775D03*
X62884Y-41400D03*
X63716Y-41025D03*
G54D21*
X48400Y-25500D03*
G54D22*
X48400Y-24500D03*
G54D23*
X59475Y-40780D03*
X59475Y-41370D03*
G54D17*
X53850Y-41225D03*
X55950Y-41225D03*
X53850Y-40725D03*
X53850Y-40225D03*
X53850Y-39725D03*
X55950Y-40725D03*
X55950Y-40225D03*
X55950Y-39725D03*
G54D12*
X52500Y-39700D03*
X52500Y-40300D03*
G54D22*
X50900Y-27300D03*
X50900Y-28300D03*
X50900Y-29300D03*
X50900Y-30300D03*
X50900Y-31300D03*
X50900Y-32300D03*
X50900Y-33300D03*
X50900Y-34300D03*
G54D21*
X50900Y-36300D03*
G54D22*
X50900Y-35300D03*
G54D24*
X61100Y-29050D03*
X60600Y-29050D03*
X60100Y-29050D03*
X59600Y-29050D03*
G54D25*
X58850Y-29800D03*
X58850Y-30300D03*
X58850Y-30800D03*
X58850Y-31300D03*
X58850Y-31800D03*
X58850Y-32300D03*
X58850Y-32800D03*
X58850Y-33300D03*
X58850Y-33800D03*
G54D24*
X59600Y-34550D03*
X60100Y-34550D03*
X60600Y-34550D03*
X61100Y-34550D03*
X61600Y-34550D03*
X62100Y-34550D03*
X62600Y-34550D03*
G54D25*
X63350Y-33800D03*
X63350Y-33300D03*
X63350Y-32800D03*
X63350Y-32300D03*
X63350Y-31800D03*
X63350Y-31300D03*
X63350Y-30800D03*
X63350Y-30300D03*
X63350Y-29800D03*
G54D24*
X62600Y-29050D03*
X62100Y-29050D03*
X61600Y-29050D03*
G54D26*
X52840Y-35660D03*
X53550Y-34950D03*
X54260Y-35660D03*
X62840Y-47610D03*
X63550Y-46900D03*
X64260Y-47610D03*
X57090Y-51110D03*
X57800Y-50400D03*
X58510Y-51110D03*
X62840Y-51110D03*
X63550Y-50400D03*
X64260Y-51110D03*
X57090Y-47610D03*
X57800Y-46900D03*
X58510Y-47610D03*
G54D22*
X56100Y-36300D03*
X56100Y-35300D03*
X56100Y-34300D03*
X56100Y-33300D03*
X56100Y-32300D03*
X56100Y-31300D03*
X56100Y-30300D03*
X56100Y-29300D03*
G54D21*
X56100Y-27300D03*
G54D22*
X56100Y-28300D03*
G54D27*
X57575Y-36700D03*
X60575Y-36700D03*
X60575Y-40700D03*
X61575Y-40700D03*
X58575Y-40700D03*
X57575Y-40700D03*
G54D22*
X66200Y-49600D03*
X66200Y-48600D03*
X66200Y-47600D03*
X66200Y-46600D03*
G54D21*
X66200Y-44600D03*
G54D22*
X66200Y-45600D03*
G54D12*
X53125Y-39700D03*
X53125Y-40300D03*
G54D22*
X50900Y-37700D03*
X50900Y-38700D03*
G54D21*
X50900Y-40700D03*
G54D22*
X50900Y-39700D03*
G54D11*
X60175Y-48525D03*
X60775Y-48525D03*
G54D26*
X52550Y-35050D03*
X53550Y-34050D03*
X54550Y-35050D03*
M02*
