G04 (created by PCBNEW (2013-07-07 BZR 4022)-stable) date 7/4/2017 7:52:43 PM*
%MOIN*%
G04 Gerber Fmt 3.4, Leading zero omitted, Abs format*
%FSLAX34Y34*%
G01*
G70*
G90*
G04 APERTURE LIST*
%ADD10C,0.00590551*%
%ADD11C,0.011811*%
%ADD12C,0.01*%
%ADD13C,0.0125*%
%ADD14C,0.00787402*%
%ADD15C,0.012*%
G04 APERTURE END LIST*
G54D10*
G54D11*
X67261Y-51202D02*
X67095Y-51702D01*
X66928Y-51202D01*
X66785Y-51250D02*
X66761Y-51226D01*
X66714Y-51202D01*
X66595Y-51202D01*
X66547Y-51226D01*
X66523Y-51250D01*
X66500Y-51297D01*
X66500Y-51345D01*
X66523Y-51416D01*
X66809Y-51702D01*
X66500Y-51702D01*
X66285Y-51654D02*
X66261Y-51678D01*
X66285Y-51702D01*
X66309Y-51678D01*
X66285Y-51654D01*
X66285Y-51702D01*
X65952Y-51202D02*
X65904Y-51202D01*
X65857Y-51226D01*
X65833Y-51250D01*
X65809Y-51297D01*
X65785Y-51392D01*
X65785Y-51511D01*
X65809Y-51607D01*
X65833Y-51654D01*
X65857Y-51678D01*
X65904Y-51702D01*
X65952Y-51702D01*
X66000Y-51678D01*
X66023Y-51654D01*
X66047Y-51607D01*
X66071Y-51511D01*
X66071Y-51392D01*
X66047Y-51297D01*
X66023Y-51250D01*
X66000Y-51226D01*
X65952Y-51202D01*
G54D12*
X55635Y-31511D02*
X55635Y-31111D01*
X55483Y-31111D01*
X55445Y-31130D01*
X55426Y-31150D01*
X55407Y-31188D01*
X55407Y-31245D01*
X55426Y-31283D01*
X55445Y-31302D01*
X55483Y-31321D01*
X55635Y-31321D01*
X55064Y-31245D02*
X55064Y-31511D01*
X55159Y-31092D02*
X55254Y-31378D01*
X55007Y-31378D01*
X54683Y-31245D02*
X54683Y-31511D01*
X54778Y-31092D02*
X54873Y-31378D01*
X54626Y-31378D01*
X55635Y-29511D02*
X55635Y-29111D01*
X55483Y-29111D01*
X55445Y-29130D01*
X55426Y-29150D01*
X55407Y-29188D01*
X55407Y-29245D01*
X55426Y-29283D01*
X55445Y-29302D01*
X55483Y-29321D01*
X55635Y-29321D01*
X55254Y-29150D02*
X55235Y-29130D01*
X55197Y-29111D01*
X55102Y-29111D01*
X55064Y-29130D01*
X55045Y-29150D01*
X55026Y-29188D01*
X55026Y-29226D01*
X55045Y-29283D01*
X55273Y-29511D01*
X55026Y-29511D01*
X54797Y-29283D02*
X54835Y-29264D01*
X54854Y-29245D01*
X54873Y-29207D01*
X54873Y-29188D01*
X54854Y-29150D01*
X54835Y-29130D01*
X54797Y-29111D01*
X54721Y-29111D01*
X54683Y-29130D01*
X54664Y-29150D01*
X54645Y-29188D01*
X54645Y-29207D01*
X54664Y-29245D01*
X54683Y-29264D01*
X54721Y-29283D01*
X54797Y-29283D01*
X54835Y-29302D01*
X54854Y-29321D01*
X54873Y-29359D01*
X54873Y-29435D01*
X54854Y-29473D01*
X54835Y-29492D01*
X54797Y-29511D01*
X54721Y-29511D01*
X54683Y-29492D01*
X54664Y-29473D01*
X54645Y-29435D01*
X54645Y-29359D01*
X54664Y-29321D01*
X54683Y-29302D01*
X54721Y-29283D01*
X52204Y-27130D02*
X52242Y-27111D01*
X52300Y-27111D01*
X52357Y-27130D01*
X52395Y-27169D01*
X52414Y-27207D01*
X52433Y-27283D01*
X52433Y-27340D01*
X52414Y-27416D01*
X52395Y-27454D01*
X52357Y-27492D01*
X52300Y-27511D01*
X52261Y-27511D01*
X52204Y-27492D01*
X52185Y-27473D01*
X52185Y-27340D01*
X52261Y-27340D01*
X52014Y-27511D02*
X52014Y-27111D01*
X51785Y-27511D01*
X51785Y-27111D01*
X51595Y-27511D02*
X51595Y-27111D01*
X51499Y-27111D01*
X51442Y-27130D01*
X51404Y-27169D01*
X51385Y-27207D01*
X51366Y-27283D01*
X51366Y-27340D01*
X51385Y-27416D01*
X51404Y-27454D01*
X51442Y-27492D01*
X51499Y-27511D01*
X51595Y-27511D01*
X55404Y-27130D02*
X55442Y-27111D01*
X55500Y-27111D01*
X55557Y-27130D01*
X55595Y-27169D01*
X55614Y-27207D01*
X55633Y-27283D01*
X55633Y-27340D01*
X55614Y-27416D01*
X55595Y-27454D01*
X55557Y-27492D01*
X55500Y-27511D01*
X55461Y-27511D01*
X55404Y-27492D01*
X55385Y-27473D01*
X55385Y-27340D01*
X55461Y-27340D01*
X55214Y-27511D02*
X55214Y-27111D01*
X54985Y-27511D01*
X54985Y-27111D01*
X54795Y-27511D02*
X54795Y-27111D01*
X54699Y-27111D01*
X54642Y-27130D01*
X54604Y-27169D01*
X54585Y-27207D01*
X54566Y-27283D01*
X54566Y-27340D01*
X54585Y-27416D01*
X54604Y-27454D01*
X54642Y-27492D01*
X54699Y-27511D01*
X54795Y-27511D01*
X57585Y-35461D02*
X57585Y-35061D01*
X57433Y-35061D01*
X57395Y-35080D01*
X57376Y-35100D01*
X57357Y-35138D01*
X57357Y-35195D01*
X57376Y-35233D01*
X57395Y-35252D01*
X57433Y-35271D01*
X57585Y-35271D01*
X56995Y-35061D02*
X57185Y-35061D01*
X57204Y-35252D01*
X57185Y-35233D01*
X57147Y-35214D01*
X57052Y-35214D01*
X57014Y-35233D01*
X56995Y-35252D01*
X56976Y-35290D01*
X56976Y-35385D01*
X56995Y-35423D01*
X57014Y-35442D01*
X57052Y-35461D01*
X57147Y-35461D01*
X57185Y-35442D01*
X57204Y-35423D01*
X56842Y-35061D02*
X56576Y-35061D01*
X56747Y-35461D01*
X55635Y-34511D02*
X55635Y-34111D01*
X55483Y-34111D01*
X55445Y-34130D01*
X55426Y-34150D01*
X55407Y-34188D01*
X55407Y-34245D01*
X55426Y-34283D01*
X55445Y-34302D01*
X55483Y-34321D01*
X55635Y-34321D01*
X55045Y-34111D02*
X55235Y-34111D01*
X55254Y-34302D01*
X55235Y-34283D01*
X55197Y-34264D01*
X55102Y-34264D01*
X55064Y-34283D01*
X55045Y-34302D01*
X55026Y-34340D01*
X55026Y-34435D01*
X55045Y-34473D01*
X55064Y-34492D01*
X55102Y-34511D01*
X55197Y-34511D01*
X55235Y-34492D01*
X55254Y-34473D01*
X54892Y-34111D02*
X54645Y-34111D01*
X54778Y-34264D01*
X54721Y-34264D01*
X54683Y-34283D01*
X54664Y-34302D01*
X54645Y-34340D01*
X54645Y-34435D01*
X54664Y-34473D01*
X54683Y-34492D01*
X54721Y-34511D01*
X54835Y-34511D01*
X54873Y-34492D01*
X54892Y-34473D01*
X55635Y-36511D02*
X55635Y-36111D01*
X55483Y-36111D01*
X55445Y-36130D01*
X55426Y-36150D01*
X55407Y-36188D01*
X55407Y-36245D01*
X55426Y-36283D01*
X55445Y-36302D01*
X55483Y-36321D01*
X55635Y-36321D01*
X55045Y-36111D02*
X55235Y-36111D01*
X55254Y-36302D01*
X55235Y-36283D01*
X55197Y-36264D01*
X55102Y-36264D01*
X55064Y-36283D01*
X55045Y-36302D01*
X55026Y-36340D01*
X55026Y-36435D01*
X55045Y-36473D01*
X55064Y-36492D01*
X55102Y-36511D01*
X55197Y-36511D01*
X55235Y-36492D01*
X55254Y-36473D01*
X54835Y-36511D02*
X54759Y-36511D01*
X54721Y-36492D01*
X54702Y-36473D01*
X54664Y-36416D01*
X54645Y-36340D01*
X54645Y-36188D01*
X54664Y-36150D01*
X54683Y-36130D01*
X54721Y-36111D01*
X54797Y-36111D01*
X54835Y-36130D01*
X54854Y-36150D01*
X54873Y-36188D01*
X54873Y-36283D01*
X54854Y-36321D01*
X54835Y-36340D01*
X54797Y-36359D01*
X54721Y-36359D01*
X54683Y-36340D01*
X54664Y-36321D01*
X54645Y-36283D01*
X55635Y-33511D02*
X55635Y-33111D01*
X55483Y-33111D01*
X55445Y-33130D01*
X55426Y-33150D01*
X55407Y-33188D01*
X55407Y-33245D01*
X55426Y-33283D01*
X55445Y-33302D01*
X55483Y-33321D01*
X55635Y-33321D01*
X55045Y-33111D02*
X55235Y-33111D01*
X55254Y-33302D01*
X55235Y-33283D01*
X55197Y-33264D01*
X55102Y-33264D01*
X55064Y-33283D01*
X55045Y-33302D01*
X55026Y-33340D01*
X55026Y-33435D01*
X55045Y-33473D01*
X55064Y-33492D01*
X55102Y-33511D01*
X55197Y-33511D01*
X55235Y-33492D01*
X55254Y-33473D01*
X54645Y-33511D02*
X54873Y-33511D01*
X54759Y-33511D02*
X54759Y-33111D01*
X54797Y-33169D01*
X54835Y-33207D01*
X54873Y-33226D01*
X55635Y-30511D02*
X55635Y-30111D01*
X55483Y-30111D01*
X55445Y-30130D01*
X55426Y-30150D01*
X55407Y-30188D01*
X55407Y-30245D01*
X55426Y-30283D01*
X55445Y-30302D01*
X55483Y-30321D01*
X55635Y-30321D01*
X55064Y-30245D02*
X55064Y-30511D01*
X55159Y-30092D02*
X55254Y-30378D01*
X55007Y-30378D01*
X54873Y-30150D02*
X54854Y-30130D01*
X54816Y-30111D01*
X54721Y-30111D01*
X54683Y-30130D01*
X54664Y-30150D01*
X54645Y-30188D01*
X54645Y-30226D01*
X54664Y-30283D01*
X54892Y-30511D01*
X54645Y-30511D01*
X55635Y-32511D02*
X55635Y-32111D01*
X55483Y-32111D01*
X55445Y-32130D01*
X55426Y-32150D01*
X55407Y-32188D01*
X55407Y-32245D01*
X55426Y-32283D01*
X55445Y-32302D01*
X55483Y-32321D01*
X55635Y-32321D01*
X55064Y-32245D02*
X55064Y-32511D01*
X55159Y-32092D02*
X55254Y-32378D01*
X55007Y-32378D01*
X54892Y-32111D02*
X54626Y-32111D01*
X54797Y-32511D01*
X52385Y-33511D02*
X52385Y-33111D01*
X52233Y-33111D01*
X52195Y-33130D01*
X52176Y-33150D01*
X52157Y-33188D01*
X52157Y-33245D01*
X52176Y-33283D01*
X52195Y-33302D01*
X52233Y-33321D01*
X52385Y-33321D01*
X51795Y-33111D02*
X51985Y-33111D01*
X52004Y-33302D01*
X51985Y-33283D01*
X51947Y-33264D01*
X51852Y-33264D01*
X51814Y-33283D01*
X51795Y-33302D01*
X51776Y-33340D01*
X51776Y-33435D01*
X51795Y-33473D01*
X51814Y-33492D01*
X51852Y-33511D01*
X51947Y-33511D01*
X51985Y-33492D01*
X52004Y-33473D01*
X51623Y-33150D02*
X51604Y-33130D01*
X51566Y-33111D01*
X51471Y-33111D01*
X51433Y-33130D01*
X51414Y-33150D01*
X51395Y-33188D01*
X51395Y-33226D01*
X51414Y-33283D01*
X51642Y-33511D01*
X51395Y-33511D01*
X52385Y-34511D02*
X52385Y-34111D01*
X52233Y-34111D01*
X52195Y-34130D01*
X52176Y-34150D01*
X52157Y-34188D01*
X52157Y-34245D01*
X52176Y-34283D01*
X52195Y-34302D01*
X52233Y-34321D01*
X52385Y-34321D01*
X51795Y-34111D02*
X51985Y-34111D01*
X52004Y-34302D01*
X51985Y-34283D01*
X51947Y-34264D01*
X51852Y-34264D01*
X51814Y-34283D01*
X51795Y-34302D01*
X51776Y-34340D01*
X51776Y-34435D01*
X51795Y-34473D01*
X51814Y-34492D01*
X51852Y-34511D01*
X51947Y-34511D01*
X51985Y-34492D01*
X52004Y-34473D01*
X51414Y-34111D02*
X51604Y-34111D01*
X51623Y-34302D01*
X51604Y-34283D01*
X51566Y-34264D01*
X51471Y-34264D01*
X51433Y-34283D01*
X51414Y-34302D01*
X51395Y-34340D01*
X51395Y-34435D01*
X51414Y-34473D01*
X51433Y-34492D01*
X51471Y-34511D01*
X51566Y-34511D01*
X51604Y-34492D01*
X51623Y-34473D01*
X52385Y-32511D02*
X52385Y-32111D01*
X52233Y-32111D01*
X52195Y-32130D01*
X52176Y-32150D01*
X52157Y-32188D01*
X52157Y-32245D01*
X52176Y-32283D01*
X52195Y-32302D01*
X52233Y-32321D01*
X52385Y-32321D01*
X51814Y-32245D02*
X51814Y-32511D01*
X51909Y-32092D02*
X52004Y-32378D01*
X51757Y-32378D01*
X51547Y-32283D02*
X51585Y-32264D01*
X51604Y-32245D01*
X51623Y-32207D01*
X51623Y-32188D01*
X51604Y-32150D01*
X51585Y-32130D01*
X51547Y-32111D01*
X51471Y-32111D01*
X51433Y-32130D01*
X51414Y-32150D01*
X51395Y-32188D01*
X51395Y-32207D01*
X51414Y-32245D01*
X51433Y-32264D01*
X51471Y-32283D01*
X51547Y-32283D01*
X51585Y-32302D01*
X51604Y-32321D01*
X51623Y-32359D01*
X51623Y-32435D01*
X51604Y-32473D01*
X51585Y-32492D01*
X51547Y-32511D01*
X51471Y-32511D01*
X51433Y-32492D01*
X51414Y-32473D01*
X51395Y-32435D01*
X51395Y-32359D01*
X51414Y-32321D01*
X51433Y-32302D01*
X51471Y-32283D01*
X52385Y-31511D02*
X52385Y-31111D01*
X52233Y-31111D01*
X52195Y-31130D01*
X52176Y-31150D01*
X52157Y-31188D01*
X52157Y-31245D01*
X52176Y-31283D01*
X52195Y-31302D01*
X52233Y-31321D01*
X52385Y-31321D01*
X51814Y-31245D02*
X51814Y-31511D01*
X51909Y-31092D02*
X52004Y-31378D01*
X51757Y-31378D01*
X51414Y-31111D02*
X51604Y-31111D01*
X51623Y-31302D01*
X51604Y-31283D01*
X51566Y-31264D01*
X51471Y-31264D01*
X51433Y-31283D01*
X51414Y-31302D01*
X51395Y-31340D01*
X51395Y-31435D01*
X51414Y-31473D01*
X51433Y-31492D01*
X51471Y-31511D01*
X51566Y-31511D01*
X51604Y-31492D01*
X51623Y-31473D01*
X55635Y-28511D02*
X55635Y-28111D01*
X55483Y-28111D01*
X55445Y-28130D01*
X55426Y-28150D01*
X55407Y-28188D01*
X55407Y-28245D01*
X55426Y-28283D01*
X55445Y-28302D01*
X55483Y-28321D01*
X55635Y-28321D01*
X55273Y-28111D02*
X55026Y-28111D01*
X55159Y-28264D01*
X55102Y-28264D01*
X55064Y-28283D01*
X55045Y-28302D01*
X55026Y-28340D01*
X55026Y-28435D01*
X55045Y-28473D01*
X55064Y-28492D01*
X55102Y-28511D01*
X55216Y-28511D01*
X55254Y-28492D01*
X55273Y-28473D01*
X54778Y-28111D02*
X54740Y-28111D01*
X54702Y-28130D01*
X54683Y-28150D01*
X54664Y-28188D01*
X54645Y-28264D01*
X54645Y-28359D01*
X54664Y-28435D01*
X54683Y-28473D01*
X54702Y-28492D01*
X54740Y-28511D01*
X54778Y-28511D01*
X54816Y-28492D01*
X54835Y-28473D01*
X54854Y-28435D01*
X54873Y-28359D01*
X54873Y-28264D01*
X54854Y-28188D01*
X54835Y-28150D01*
X54816Y-28130D01*
X54778Y-28111D01*
X52385Y-29461D02*
X52385Y-29061D01*
X52233Y-29061D01*
X52195Y-29080D01*
X52176Y-29100D01*
X52157Y-29138D01*
X52157Y-29195D01*
X52176Y-29233D01*
X52195Y-29252D01*
X52233Y-29271D01*
X52385Y-29271D01*
X51814Y-29195D02*
X51814Y-29461D01*
X51909Y-29042D02*
X52004Y-29328D01*
X51757Y-29328D01*
X51528Y-29061D02*
X51490Y-29061D01*
X51452Y-29080D01*
X51433Y-29100D01*
X51414Y-29138D01*
X51395Y-29214D01*
X51395Y-29309D01*
X51414Y-29385D01*
X51433Y-29423D01*
X51452Y-29442D01*
X51490Y-29461D01*
X51528Y-29461D01*
X51566Y-29442D01*
X51585Y-29423D01*
X51604Y-29385D01*
X51623Y-29309D01*
X51623Y-29214D01*
X51604Y-29138D01*
X51585Y-29100D01*
X51566Y-29080D01*
X51528Y-29061D01*
X52385Y-30511D02*
X52385Y-30111D01*
X52233Y-30111D01*
X52195Y-30130D01*
X52176Y-30150D01*
X52157Y-30188D01*
X52157Y-30245D01*
X52176Y-30283D01*
X52195Y-30302D01*
X52233Y-30321D01*
X52385Y-30321D01*
X51814Y-30245D02*
X51814Y-30511D01*
X51909Y-30092D02*
X52004Y-30378D01*
X51757Y-30378D01*
X51642Y-30111D02*
X51395Y-30111D01*
X51528Y-30264D01*
X51471Y-30264D01*
X51433Y-30283D01*
X51414Y-30302D01*
X51395Y-30340D01*
X51395Y-30435D01*
X51414Y-30473D01*
X51433Y-30492D01*
X51471Y-30511D01*
X51585Y-30511D01*
X51623Y-30492D01*
X51642Y-30473D01*
X50435Y-35511D02*
X50435Y-35111D01*
X50283Y-35111D01*
X50245Y-35130D01*
X50226Y-35150D01*
X50207Y-35188D01*
X50207Y-35245D01*
X50226Y-35283D01*
X50245Y-35302D01*
X50283Y-35321D01*
X50435Y-35321D01*
X49845Y-35111D02*
X50035Y-35111D01*
X50054Y-35302D01*
X50035Y-35283D01*
X49997Y-35264D01*
X49902Y-35264D01*
X49864Y-35283D01*
X49845Y-35302D01*
X49826Y-35340D01*
X49826Y-35435D01*
X49845Y-35473D01*
X49864Y-35492D01*
X49902Y-35511D01*
X49997Y-35511D01*
X50035Y-35492D01*
X50054Y-35473D01*
X49597Y-35283D02*
X49635Y-35264D01*
X49654Y-35245D01*
X49673Y-35207D01*
X49673Y-35188D01*
X49654Y-35150D01*
X49635Y-35130D01*
X49597Y-35111D01*
X49521Y-35111D01*
X49483Y-35130D01*
X49464Y-35150D01*
X49445Y-35188D01*
X49445Y-35207D01*
X49464Y-35245D01*
X49483Y-35264D01*
X49521Y-35283D01*
X49597Y-35283D01*
X49635Y-35302D01*
X49654Y-35321D01*
X49673Y-35359D01*
X49673Y-35435D01*
X49654Y-35473D01*
X49635Y-35492D01*
X49597Y-35511D01*
X49521Y-35511D01*
X49483Y-35492D01*
X49464Y-35473D01*
X49445Y-35435D01*
X49445Y-35359D01*
X49464Y-35321D01*
X49483Y-35302D01*
X49521Y-35283D01*
X52385Y-28511D02*
X52385Y-28111D01*
X52233Y-28111D01*
X52195Y-28130D01*
X52176Y-28150D01*
X52157Y-28188D01*
X52157Y-28245D01*
X52176Y-28283D01*
X52195Y-28302D01*
X52233Y-28321D01*
X52385Y-28321D01*
X51814Y-28245D02*
X51814Y-28511D01*
X51909Y-28092D02*
X52004Y-28378D01*
X51757Y-28378D01*
X51395Y-28511D02*
X51623Y-28511D01*
X51509Y-28511D02*
X51509Y-28111D01*
X51547Y-28169D01*
X51585Y-28207D01*
X51623Y-28226D01*
X52385Y-36511D02*
X52385Y-36111D01*
X52233Y-36111D01*
X52195Y-36130D01*
X52176Y-36150D01*
X52157Y-36188D01*
X52157Y-36245D01*
X52176Y-36283D01*
X52195Y-36302D01*
X52233Y-36321D01*
X52385Y-36321D01*
X51814Y-36111D02*
X51890Y-36111D01*
X51928Y-36130D01*
X51947Y-36150D01*
X51985Y-36207D01*
X52004Y-36283D01*
X52004Y-36435D01*
X51985Y-36473D01*
X51966Y-36492D01*
X51928Y-36511D01*
X51852Y-36511D01*
X51814Y-36492D01*
X51795Y-36473D01*
X51776Y-36435D01*
X51776Y-36340D01*
X51795Y-36302D01*
X51814Y-36283D01*
X51852Y-36264D01*
X51928Y-36264D01*
X51966Y-36283D01*
X51985Y-36302D01*
X52004Y-36340D01*
X51528Y-36111D02*
X51490Y-36111D01*
X51452Y-36130D01*
X51433Y-36150D01*
X51414Y-36188D01*
X51395Y-36264D01*
X51395Y-36359D01*
X51414Y-36435D01*
X51433Y-36473D01*
X51452Y-36492D01*
X51490Y-36511D01*
X51528Y-36511D01*
X51566Y-36492D01*
X51585Y-36473D01*
X51604Y-36435D01*
X51623Y-36359D01*
X51623Y-36264D01*
X51604Y-36188D01*
X51585Y-36150D01*
X51566Y-36130D01*
X51528Y-36111D01*
G54D13*
X66826Y-49707D02*
X66802Y-49650D01*
X66802Y-49564D01*
X66826Y-49478D01*
X66873Y-49421D01*
X66921Y-49392D01*
X67016Y-49364D01*
X67088Y-49364D01*
X67183Y-49392D01*
X67230Y-49421D01*
X67278Y-49478D01*
X67302Y-49564D01*
X67302Y-49621D01*
X67278Y-49707D01*
X67254Y-49735D01*
X67088Y-49735D01*
X67088Y-49621D01*
X66826Y-45757D02*
X66802Y-45700D01*
X66802Y-45614D01*
X66826Y-45528D01*
X66873Y-45471D01*
X66921Y-45442D01*
X67016Y-45414D01*
X67088Y-45414D01*
X67183Y-45442D01*
X67230Y-45471D01*
X67278Y-45528D01*
X67302Y-45614D01*
X67302Y-45671D01*
X67278Y-45757D01*
X67254Y-45785D01*
X67088Y-45785D01*
X67088Y-45671D01*
X57702Y-30238D02*
X57702Y-30523D01*
X58202Y-30380D02*
X57702Y-30380D01*
X58202Y-30761D02*
X58178Y-30714D01*
X58154Y-30690D01*
X58107Y-30666D01*
X57964Y-30666D01*
X57916Y-30690D01*
X57892Y-30714D01*
X57869Y-30761D01*
X57869Y-30833D01*
X57892Y-30880D01*
X57916Y-30904D01*
X57964Y-30928D01*
X58107Y-30928D01*
X58154Y-30904D01*
X58178Y-30880D01*
X58202Y-30833D01*
X58202Y-30761D01*
X57869Y-31095D02*
X58202Y-31190D01*
X57964Y-31285D01*
X58202Y-31380D01*
X57869Y-31476D01*
X58202Y-31880D02*
X57940Y-31880D01*
X57892Y-31857D01*
X57869Y-31809D01*
X57869Y-31714D01*
X57892Y-31666D01*
X58178Y-31880D02*
X58202Y-31833D01*
X58202Y-31714D01*
X58178Y-31666D01*
X58130Y-31642D01*
X58083Y-31642D01*
X58035Y-31666D01*
X58011Y-31714D01*
X58011Y-31833D01*
X57988Y-31880D01*
X58202Y-32119D02*
X57869Y-32119D01*
X57964Y-32119D02*
X57916Y-32142D01*
X57892Y-32166D01*
X57869Y-32214D01*
X57869Y-32261D01*
X58202Y-32642D02*
X57702Y-32642D01*
X58178Y-32642D02*
X58202Y-32595D01*
X58202Y-32500D01*
X58178Y-32452D01*
X58154Y-32428D01*
X58107Y-32404D01*
X57964Y-32404D01*
X57916Y-32428D01*
X57892Y-32452D01*
X57869Y-32500D01*
X57869Y-32595D01*
X57892Y-32642D01*
X58202Y-33261D02*
X57702Y-33261D01*
X57702Y-33452D01*
X57726Y-33500D01*
X57750Y-33523D01*
X57797Y-33547D01*
X57869Y-33547D01*
X57916Y-33523D01*
X57940Y-33500D01*
X57964Y-33452D01*
X57964Y-33261D01*
X58202Y-33761D02*
X57869Y-33761D01*
X57964Y-33761D02*
X57916Y-33785D01*
X57892Y-33809D01*
X57869Y-33857D01*
X57869Y-33904D01*
X58202Y-34142D02*
X58178Y-34095D01*
X58154Y-34071D01*
X58107Y-34047D01*
X57964Y-34047D01*
X57916Y-34071D01*
X57892Y-34095D01*
X57869Y-34142D01*
X57869Y-34214D01*
X57892Y-34261D01*
X57916Y-34285D01*
X57964Y-34309D01*
X58107Y-34309D01*
X58154Y-34285D01*
X58178Y-34261D01*
X58202Y-34214D01*
X58202Y-34142D01*
X57869Y-34738D02*
X58273Y-34738D01*
X58321Y-34714D01*
X58345Y-34690D01*
X58369Y-34642D01*
X58369Y-34571D01*
X58345Y-34523D01*
X58178Y-34738D02*
X58202Y-34690D01*
X58202Y-34595D01*
X58178Y-34547D01*
X58154Y-34523D01*
X58107Y-34500D01*
X57964Y-34500D01*
X57916Y-34523D01*
X57892Y-34547D01*
X57869Y-34595D01*
X57869Y-34690D01*
X57892Y-34738D01*
X58202Y-34976D02*
X57869Y-34976D01*
X57964Y-34976D02*
X57916Y-35000D01*
X57892Y-35023D01*
X57869Y-35071D01*
X57869Y-35119D01*
X58202Y-35500D02*
X57940Y-35500D01*
X57892Y-35476D01*
X57869Y-35428D01*
X57869Y-35333D01*
X57892Y-35285D01*
X58178Y-35500D02*
X58202Y-35452D01*
X58202Y-35333D01*
X58178Y-35285D01*
X58130Y-35261D01*
X58083Y-35261D01*
X58035Y-35285D01*
X58011Y-35333D01*
X58011Y-35452D01*
X57988Y-35500D01*
X58202Y-35738D02*
X57869Y-35738D01*
X57916Y-35738D02*
X57892Y-35761D01*
X57869Y-35809D01*
X57869Y-35880D01*
X57892Y-35928D01*
X57940Y-35952D01*
X58202Y-35952D01*
X57940Y-35952D02*
X57892Y-35976D01*
X57869Y-36023D01*
X57869Y-36095D01*
X57892Y-36142D01*
X57940Y-36166D01*
X58202Y-36166D01*
X58202Y-36404D02*
X57869Y-36404D01*
X57702Y-36404D02*
X57726Y-36380D01*
X57750Y-36404D01*
X57726Y-36428D01*
X57702Y-36404D01*
X57750Y-36404D01*
X57869Y-36642D02*
X58202Y-36642D01*
X57916Y-36642D02*
X57892Y-36666D01*
X57869Y-36714D01*
X57869Y-36785D01*
X57892Y-36833D01*
X57940Y-36857D01*
X58202Y-36857D01*
X57869Y-37309D02*
X58273Y-37309D01*
X58321Y-37285D01*
X58345Y-37261D01*
X58369Y-37214D01*
X58369Y-37142D01*
X58345Y-37095D01*
X58178Y-37309D02*
X58202Y-37261D01*
X58202Y-37166D01*
X58178Y-37119D01*
X58154Y-37095D01*
X58107Y-37071D01*
X57964Y-37071D01*
X57916Y-37095D01*
X57892Y-37119D01*
X57869Y-37166D01*
X57869Y-37261D01*
X57892Y-37309D01*
X58202Y-37928D02*
X57702Y-37928D01*
X57940Y-37928D02*
X57940Y-38214D01*
X58202Y-38214D02*
X57702Y-38214D01*
X58178Y-38642D02*
X58202Y-38595D01*
X58202Y-38500D01*
X58178Y-38452D01*
X58130Y-38428D01*
X57940Y-38428D01*
X57892Y-38452D01*
X57869Y-38500D01*
X57869Y-38595D01*
X57892Y-38642D01*
X57940Y-38666D01*
X57988Y-38666D01*
X58035Y-38428D01*
X58202Y-39095D02*
X57940Y-39095D01*
X57892Y-39071D01*
X57869Y-39023D01*
X57869Y-38928D01*
X57892Y-38880D01*
X58178Y-39095D02*
X58202Y-39047D01*
X58202Y-38928D01*
X58178Y-38880D01*
X58130Y-38857D01*
X58083Y-38857D01*
X58035Y-38880D01*
X58011Y-38928D01*
X58011Y-39047D01*
X57988Y-39095D01*
X58202Y-39547D02*
X57702Y-39547D01*
X58178Y-39547D02*
X58202Y-39500D01*
X58202Y-39404D01*
X58178Y-39357D01*
X58154Y-39333D01*
X58107Y-39309D01*
X57964Y-39309D01*
X57916Y-39333D01*
X57892Y-39357D01*
X57869Y-39404D01*
X57869Y-39500D01*
X57892Y-39547D01*
X58178Y-39976D02*
X58202Y-39928D01*
X58202Y-39833D01*
X58178Y-39785D01*
X58130Y-39761D01*
X57940Y-39761D01*
X57892Y-39785D01*
X57869Y-39833D01*
X57869Y-39928D01*
X57892Y-39976D01*
X57940Y-40000D01*
X57988Y-40000D01*
X58035Y-39761D01*
X58202Y-40214D02*
X57869Y-40214D01*
X57964Y-40214D02*
X57916Y-40238D01*
X57892Y-40261D01*
X57869Y-40309D01*
X57869Y-40357D01*
X58178Y-40500D02*
X58202Y-40547D01*
X58202Y-40642D01*
X58178Y-40690D01*
X58130Y-40714D01*
X58107Y-40714D01*
X58059Y-40690D01*
X58035Y-40642D01*
X58035Y-40571D01*
X58011Y-40523D01*
X57964Y-40500D01*
X57940Y-40500D01*
X57892Y-40523D01*
X57869Y-40571D01*
X57869Y-40642D01*
X57892Y-40690D01*
G54D14*
X58000Y-28800D02*
X57800Y-29000D01*
X58000Y-28800D02*
X58200Y-29000D01*
X58000Y-28800D02*
X58000Y-29900D01*
G54D13*
X55815Y-50215D02*
X55982Y-50215D01*
X55982Y-50477D02*
X55982Y-49977D01*
X55744Y-49977D01*
X55553Y-50477D02*
X55553Y-49977D01*
X55363Y-49977D01*
X55315Y-50001D01*
X55291Y-50025D01*
X55267Y-50072D01*
X55267Y-50144D01*
X55291Y-50191D01*
X55315Y-50215D01*
X55363Y-50239D01*
X55553Y-50239D01*
X54791Y-50001D02*
X54839Y-49977D01*
X54910Y-49977D01*
X54982Y-50001D01*
X55029Y-50048D01*
X55053Y-50096D01*
X55077Y-50191D01*
X55077Y-50263D01*
X55053Y-50358D01*
X55029Y-50405D01*
X54982Y-50453D01*
X54910Y-50477D01*
X54863Y-50477D01*
X54791Y-50453D01*
X54767Y-50429D01*
X54767Y-50263D01*
X54863Y-50263D01*
X54577Y-50334D02*
X54339Y-50334D01*
X54624Y-50477D02*
X54458Y-49977D01*
X54291Y-50477D01*
X53815Y-49977D02*
X53648Y-50477D01*
X53482Y-49977D01*
X53125Y-50453D02*
X53172Y-50477D01*
X53267Y-50477D01*
X53315Y-50453D01*
X53339Y-50405D01*
X53339Y-50215D01*
X53315Y-50167D01*
X53267Y-50144D01*
X53172Y-50144D01*
X53125Y-50167D01*
X53101Y-50215D01*
X53101Y-50263D01*
X53339Y-50310D01*
X52672Y-50453D02*
X52720Y-50477D01*
X52815Y-50477D01*
X52863Y-50453D01*
X52886Y-50429D01*
X52910Y-50382D01*
X52910Y-50239D01*
X52886Y-50191D01*
X52863Y-50167D01*
X52815Y-50144D01*
X52720Y-50144D01*
X52672Y-50167D01*
X52529Y-50144D02*
X52339Y-50144D01*
X52458Y-49977D02*
X52458Y-50405D01*
X52434Y-50453D01*
X52386Y-50477D01*
X52339Y-50477D01*
X52101Y-50477D02*
X52148Y-50453D01*
X52172Y-50429D01*
X52196Y-50382D01*
X52196Y-50239D01*
X52172Y-50191D01*
X52148Y-50167D01*
X52101Y-50144D01*
X52029Y-50144D01*
X51982Y-50167D01*
X51958Y-50191D01*
X51934Y-50239D01*
X51934Y-50382D01*
X51958Y-50429D01*
X51982Y-50453D01*
X52029Y-50477D01*
X52101Y-50477D01*
X51720Y-50477D02*
X51720Y-50144D01*
X51720Y-50239D02*
X51696Y-50191D01*
X51672Y-50167D01*
X51625Y-50144D01*
X51577Y-50144D01*
X51053Y-50334D02*
X50815Y-50334D01*
X51101Y-50477D02*
X50934Y-49977D01*
X50767Y-50477D01*
X50601Y-50477D02*
X50601Y-50144D01*
X50601Y-50239D02*
X50577Y-50191D01*
X50553Y-50167D01*
X50505Y-50144D01*
X50458Y-50144D01*
X50077Y-50453D02*
X50125Y-50477D01*
X50220Y-50477D01*
X50267Y-50453D01*
X50291Y-50429D01*
X50315Y-50382D01*
X50315Y-50239D01*
X50291Y-50191D01*
X50267Y-50167D01*
X50220Y-50144D01*
X50125Y-50144D01*
X50077Y-50167D01*
X49648Y-50477D02*
X49648Y-50215D01*
X49672Y-50167D01*
X49720Y-50144D01*
X49815Y-50144D01*
X49863Y-50167D01*
X49648Y-50453D02*
X49696Y-50477D01*
X49815Y-50477D01*
X49863Y-50453D01*
X49886Y-50405D01*
X49886Y-50358D01*
X49863Y-50310D01*
X49815Y-50286D01*
X49696Y-50286D01*
X49648Y-50263D01*
X49196Y-50477D02*
X49196Y-49977D01*
X49196Y-50453D02*
X49244Y-50477D01*
X49339Y-50477D01*
X49386Y-50453D01*
X49410Y-50429D01*
X49434Y-50382D01*
X49434Y-50239D01*
X49410Y-50191D01*
X49386Y-50167D01*
X49339Y-50144D01*
X49244Y-50144D01*
X49196Y-50167D01*
X48767Y-50453D02*
X48815Y-50477D01*
X48910Y-50477D01*
X48958Y-50453D01*
X48982Y-50405D01*
X48982Y-50215D01*
X48958Y-50167D01*
X48910Y-50144D01*
X48815Y-50144D01*
X48767Y-50167D01*
X48744Y-50215D01*
X48744Y-50263D01*
X48982Y-50310D01*
X66802Y-44400D02*
X66802Y-44800D01*
X67302Y-44400D01*
X67302Y-44800D01*
X67064Y-46600D02*
X67302Y-46600D01*
X66802Y-46400D02*
X67064Y-46600D01*
X66802Y-46800D01*
X66802Y-48400D02*
X67302Y-48800D01*
X66802Y-48800D02*
X67302Y-48400D01*
X66826Y-47757D02*
X66802Y-47700D01*
X66802Y-47614D01*
X66826Y-47528D01*
X66873Y-47471D01*
X66921Y-47442D01*
X67016Y-47414D01*
X67088Y-47414D01*
X67183Y-47442D01*
X67230Y-47471D01*
X67278Y-47528D01*
X67302Y-47614D01*
X67302Y-47671D01*
X67278Y-47757D01*
X67254Y-47785D01*
X67088Y-47785D01*
X67088Y-47671D01*
X56047Y-51592D02*
X56071Y-51569D01*
X56119Y-51497D01*
X56142Y-51450D01*
X56166Y-51378D01*
X56190Y-51259D01*
X56190Y-51164D01*
X56166Y-51045D01*
X56142Y-50973D01*
X56119Y-50926D01*
X56071Y-50854D01*
X56047Y-50830D01*
X55642Y-51378D02*
X55690Y-51402D01*
X55785Y-51402D01*
X55833Y-51378D01*
X55857Y-51354D01*
X55880Y-51307D01*
X55880Y-51164D01*
X55857Y-51116D01*
X55833Y-51092D01*
X55785Y-51069D01*
X55690Y-51069D01*
X55642Y-51092D01*
X55476Y-51592D02*
X55452Y-51569D01*
X55404Y-51497D01*
X55380Y-51450D01*
X55357Y-51378D01*
X55333Y-51259D01*
X55333Y-51164D01*
X55357Y-51045D01*
X55380Y-50973D01*
X55404Y-50926D01*
X55452Y-50854D01*
X55476Y-50830D01*
X54738Y-50950D02*
X54714Y-50926D01*
X54666Y-50902D01*
X54547Y-50902D01*
X54499Y-50926D01*
X54476Y-50950D01*
X54452Y-50997D01*
X54452Y-51045D01*
X54476Y-51116D01*
X54761Y-51402D01*
X54452Y-51402D01*
X54142Y-50902D02*
X54095Y-50902D01*
X54047Y-50926D01*
X54023Y-50950D01*
X53999Y-50997D01*
X53976Y-51092D01*
X53976Y-51211D01*
X53999Y-51307D01*
X54023Y-51354D01*
X54047Y-51378D01*
X54095Y-51402D01*
X54142Y-51402D01*
X54190Y-51378D01*
X54214Y-51354D01*
X54238Y-51307D01*
X54261Y-51211D01*
X54261Y-51092D01*
X54238Y-50997D01*
X54214Y-50950D01*
X54190Y-50926D01*
X54142Y-50902D01*
X53499Y-51402D02*
X53785Y-51402D01*
X53642Y-51402D02*
X53642Y-50902D01*
X53690Y-50973D01*
X53738Y-51021D01*
X53785Y-51045D01*
X53071Y-50902D02*
X53166Y-50902D01*
X53214Y-50926D01*
X53238Y-50950D01*
X53285Y-51021D01*
X53309Y-51116D01*
X53309Y-51307D01*
X53285Y-51354D01*
X53261Y-51378D01*
X53214Y-51402D01*
X53119Y-51402D01*
X53071Y-51378D01*
X53047Y-51354D01*
X53023Y-51307D01*
X53023Y-51188D01*
X53047Y-51140D01*
X53071Y-51116D01*
X53119Y-51092D01*
X53214Y-51092D01*
X53261Y-51116D01*
X53285Y-51140D01*
X53309Y-51188D01*
X52285Y-50902D02*
X52285Y-51259D01*
X52309Y-51330D01*
X52357Y-51378D01*
X52428Y-51402D01*
X52476Y-51402D01*
X51833Y-51402D02*
X51833Y-51140D01*
X51857Y-51092D01*
X51904Y-51069D01*
X51999Y-51069D01*
X52047Y-51092D01*
X51833Y-51378D02*
X51880Y-51402D01*
X51999Y-51402D01*
X52047Y-51378D01*
X52071Y-51330D01*
X52071Y-51283D01*
X52047Y-51235D01*
X51999Y-51211D01*
X51880Y-51211D01*
X51833Y-51188D01*
X51595Y-51402D02*
X51595Y-51069D01*
X51595Y-51116D02*
X51571Y-51092D01*
X51523Y-51069D01*
X51452Y-51069D01*
X51404Y-51092D01*
X51380Y-51140D01*
X51380Y-51402D01*
X51380Y-51140D02*
X51357Y-51092D01*
X51309Y-51069D01*
X51238Y-51069D01*
X51190Y-51092D01*
X51166Y-51140D01*
X51166Y-51402D01*
X50738Y-51378D02*
X50785Y-51402D01*
X50880Y-51402D01*
X50928Y-51378D01*
X50952Y-51330D01*
X50952Y-51140D01*
X50928Y-51092D01*
X50880Y-51069D01*
X50785Y-51069D01*
X50738Y-51092D01*
X50714Y-51140D01*
X50714Y-51188D01*
X50952Y-51235D01*
X50523Y-51378D02*
X50476Y-51402D01*
X50380Y-51402D01*
X50333Y-51378D01*
X50309Y-51330D01*
X50309Y-51307D01*
X50333Y-51259D01*
X50380Y-51235D01*
X50452Y-51235D01*
X50499Y-51211D01*
X50523Y-51164D01*
X50523Y-51140D01*
X50499Y-51092D01*
X50452Y-51069D01*
X50380Y-51069D01*
X50333Y-51092D01*
X49738Y-51378D02*
X49666Y-51402D01*
X49547Y-51402D01*
X49499Y-51378D01*
X49476Y-51354D01*
X49452Y-51307D01*
X49452Y-51259D01*
X49476Y-51211D01*
X49499Y-51188D01*
X49547Y-51164D01*
X49642Y-51140D01*
X49690Y-51116D01*
X49714Y-51092D01*
X49738Y-51045D01*
X49738Y-50997D01*
X49714Y-50950D01*
X49690Y-50926D01*
X49642Y-50902D01*
X49523Y-50902D01*
X49452Y-50926D01*
X49285Y-51069D02*
X49190Y-51402D01*
X49095Y-51164D01*
X48999Y-51402D01*
X48904Y-51069D01*
X48523Y-51378D02*
X48571Y-51402D01*
X48666Y-51402D01*
X48714Y-51378D01*
X48738Y-51330D01*
X48738Y-51140D01*
X48714Y-51092D01*
X48666Y-51069D01*
X48571Y-51069D01*
X48523Y-51092D01*
X48499Y-51140D01*
X48499Y-51188D01*
X48738Y-51235D01*
X48095Y-51378D02*
X48142Y-51402D01*
X48238Y-51402D01*
X48285Y-51378D01*
X48309Y-51330D01*
X48309Y-51140D01*
X48285Y-51092D01*
X48238Y-51069D01*
X48142Y-51069D01*
X48095Y-51092D01*
X48071Y-51140D01*
X48071Y-51188D01*
X48309Y-51235D01*
X47928Y-51069D02*
X47738Y-51069D01*
X47857Y-50902D02*
X47857Y-51330D01*
X47833Y-51378D01*
X47785Y-51402D01*
X47738Y-51402D01*
G54D12*
X52204Y-37480D02*
X52242Y-37461D01*
X52300Y-37461D01*
X52357Y-37480D01*
X52395Y-37519D01*
X52414Y-37557D01*
X52433Y-37633D01*
X52433Y-37690D01*
X52414Y-37766D01*
X52395Y-37804D01*
X52357Y-37842D01*
X52300Y-37861D01*
X52261Y-37861D01*
X52204Y-37842D01*
X52185Y-37823D01*
X52185Y-37690D01*
X52261Y-37690D01*
X52014Y-37861D02*
X52014Y-37461D01*
X51785Y-37861D01*
X51785Y-37461D01*
X51595Y-37861D02*
X51595Y-37461D01*
X51499Y-37461D01*
X51442Y-37480D01*
X51404Y-37519D01*
X51385Y-37557D01*
X51366Y-37633D01*
X51366Y-37690D01*
X51385Y-37766D01*
X51404Y-37804D01*
X51442Y-37842D01*
X51499Y-37861D01*
X51595Y-37861D01*
X53799Y-39861D02*
X53799Y-39461D01*
X53647Y-39461D01*
X53609Y-39480D01*
X53590Y-39500D01*
X53571Y-39538D01*
X53571Y-39595D01*
X53590Y-39633D01*
X53609Y-39652D01*
X53647Y-39671D01*
X53799Y-39671D01*
X53228Y-39461D02*
X53304Y-39461D01*
X53342Y-39480D01*
X53361Y-39500D01*
X53399Y-39557D01*
X53419Y-39633D01*
X53419Y-39785D01*
X53399Y-39823D01*
X53380Y-39842D01*
X53342Y-39861D01*
X53266Y-39861D01*
X53228Y-39842D01*
X53209Y-39823D01*
X53190Y-39785D01*
X53190Y-39690D01*
X53209Y-39652D01*
X53228Y-39633D01*
X53266Y-39614D01*
X53342Y-39614D01*
X53380Y-39633D01*
X53399Y-39652D01*
X53419Y-39690D01*
X53057Y-39461D02*
X52809Y-39461D01*
X52942Y-39614D01*
X52885Y-39614D01*
X52847Y-39633D01*
X52828Y-39652D01*
X52809Y-39690D01*
X52809Y-39785D01*
X52828Y-39823D01*
X52847Y-39842D01*
X52885Y-39861D01*
X52999Y-39861D01*
X53038Y-39842D01*
X53057Y-39823D01*
X52352Y-39842D02*
X52295Y-39861D01*
X52200Y-39861D01*
X52161Y-39842D01*
X52142Y-39823D01*
X52123Y-39785D01*
X52123Y-39747D01*
X52142Y-39709D01*
X52161Y-39690D01*
X52200Y-39671D01*
X52276Y-39652D01*
X52314Y-39633D01*
X52333Y-39614D01*
X52352Y-39576D01*
X52352Y-39538D01*
X52333Y-39500D01*
X52314Y-39480D01*
X52276Y-39461D01*
X52180Y-39461D01*
X52123Y-39480D01*
X51952Y-39861D02*
X51952Y-39461D01*
X51857Y-39461D01*
X51800Y-39480D01*
X51761Y-39519D01*
X51742Y-39557D01*
X51723Y-39633D01*
X51723Y-39690D01*
X51742Y-39766D01*
X51761Y-39804D01*
X51800Y-39842D01*
X51857Y-39861D01*
X51952Y-39861D01*
X51571Y-39747D02*
X51380Y-39747D01*
X51609Y-39861D02*
X51476Y-39461D01*
X51342Y-39861D01*
X53790Y-38911D02*
X53790Y-38511D01*
X53638Y-38511D01*
X53600Y-38530D01*
X53580Y-38550D01*
X53561Y-38588D01*
X53561Y-38645D01*
X53580Y-38683D01*
X53600Y-38702D01*
X53638Y-38721D01*
X53790Y-38721D01*
X53219Y-38511D02*
X53295Y-38511D01*
X53333Y-38530D01*
X53352Y-38550D01*
X53390Y-38607D01*
X53409Y-38683D01*
X53409Y-38835D01*
X53390Y-38873D01*
X53371Y-38892D01*
X53333Y-38911D01*
X53257Y-38911D01*
X53219Y-38892D01*
X53200Y-38873D01*
X53180Y-38835D01*
X53180Y-38740D01*
X53200Y-38702D01*
X53219Y-38683D01*
X53257Y-38664D01*
X53333Y-38664D01*
X53371Y-38683D01*
X53390Y-38702D01*
X53409Y-38740D01*
X52838Y-38645D02*
X52838Y-38911D01*
X52933Y-38492D02*
X53028Y-38778D01*
X52780Y-38778D01*
X52342Y-38892D02*
X52285Y-38911D01*
X52190Y-38911D01*
X52152Y-38892D01*
X52133Y-38873D01*
X52114Y-38835D01*
X52114Y-38797D01*
X52133Y-38759D01*
X52152Y-38740D01*
X52190Y-38721D01*
X52266Y-38702D01*
X52304Y-38683D01*
X52323Y-38664D01*
X52342Y-38626D01*
X52342Y-38588D01*
X52323Y-38550D01*
X52304Y-38530D01*
X52266Y-38511D01*
X52171Y-38511D01*
X52114Y-38530D01*
X51714Y-38873D02*
X51733Y-38892D01*
X51790Y-38911D01*
X51828Y-38911D01*
X51885Y-38892D01*
X51923Y-38854D01*
X51942Y-38816D01*
X51961Y-38740D01*
X51961Y-38683D01*
X51942Y-38607D01*
X51923Y-38569D01*
X51885Y-38530D01*
X51828Y-38511D01*
X51790Y-38511D01*
X51733Y-38530D01*
X51714Y-38550D01*
X51352Y-38911D02*
X51542Y-38911D01*
X51542Y-38511D01*
X52628Y-40709D02*
X52323Y-40709D01*
X52476Y-40861D02*
X52476Y-40557D01*
X52171Y-40461D02*
X51923Y-40461D01*
X52057Y-40614D01*
X52000Y-40614D01*
X51961Y-40633D01*
X51942Y-40652D01*
X51923Y-40690D01*
X51923Y-40785D01*
X51942Y-40823D01*
X51961Y-40842D01*
X52000Y-40861D01*
X52114Y-40861D01*
X52152Y-40842D01*
X52171Y-40823D01*
X51752Y-40823D02*
X51733Y-40842D01*
X51752Y-40861D01*
X51771Y-40842D01*
X51752Y-40823D01*
X51752Y-40861D01*
X51599Y-40461D02*
X51352Y-40461D01*
X51485Y-40614D01*
X51428Y-40614D01*
X51390Y-40633D01*
X51371Y-40652D01*
X51352Y-40690D01*
X51352Y-40785D01*
X51371Y-40823D01*
X51390Y-40842D01*
X51428Y-40861D01*
X51542Y-40861D01*
X51580Y-40842D01*
X51599Y-40823D01*
G54D15*
X49500Y-27400D02*
X47300Y-27400D01*
X49500Y-41400D02*
X47300Y-41400D01*
X49500Y-41400D02*
X49500Y-27400D01*
X47300Y-41400D02*
X47300Y-27400D01*
X67300Y-27400D02*
X67300Y-41400D01*
X65100Y-27400D02*
X65100Y-41400D01*
X65100Y-27400D02*
X67300Y-27400D01*
X65100Y-41400D02*
X67300Y-41400D01*
X64300Y-26600D02*
X64300Y-24400D01*
X50300Y-26600D02*
X50300Y-24400D01*
X50300Y-26600D02*
X64300Y-26600D01*
X50300Y-24400D02*
X64300Y-24400D01*
X64300Y-44400D02*
X50300Y-44400D01*
X64300Y-42200D02*
X50300Y-42200D01*
X64300Y-42200D02*
X64300Y-44400D01*
X50300Y-42200D02*
X50300Y-44400D01*
M02*
