M48
;DRILL file {Pcbnew (2013-07-07 BZR 4022)-stable} date 7/4/2017 7:52:57 PM
;FORMAT={-:-/ absolute / inch / decimal}
FMAT,2
INCH,TZ
T1C0.025
T2C0.030
T3C0.032
T4C0.040
%
G90
G05
M72
T1
X4.81Y-4.56
X4.82Y-5.0775
X4.88Y-4.76
X4.915Y-4.605
X4.915Y-4.95
X4.9225Y-4.045
X4.95Y-4.76
X5.0675Y-5.02
X5.0675Y-5.105
X5.145Y-4.5
X5.16Y-3.0625
X5.18Y-4.6425
X5.1825Y-3.33
X5.1875Y-4.825
X5.21Y-3.295
X5.215Y-4.7325
X5.24Y-3.26
X5.255Y-4.6475
X5.26Y-5.03
X5.2875Y-4.68
X5.29Y-4.97
X5.32Y-4.6475
X5.3525Y-4.68
X5.385Y-4.6475
X5.3975Y-4.7775
X5.4825Y-4.5875
X5.5975Y-4.845
X5.675Y-4.83
X5.68Y-4.9525
X5.715Y-4.865
X5.74Y-4.945
X5.75Y-2.675
X5.881Y-4.6468
X5.895Y-4.83
X5.923Y-4.6198
X5.9475Y-4.16
X5.96Y-2.98
X5.96Y-3.03
X5.96Y-3.08
X5.96Y-3.13
X5.96Y-3.18
X5.96Y-3.23
X5.96Y-3.28
X5.96Y-3.33
X5.96Y-3.38
X6.02Y-5.02
X6.025Y-4.915
X6.0325Y-3.9725
X6.115Y-4.73
X6.115Y-5.035
X6.178Y-4.452
X6.2Y-3.
X6.21Y-2.82
X6.2412Y-3.2082
X6.2525Y-4.6825
X6.255Y-4.81
X6.26Y-2.82
X6.35Y-2.7125
X6.365Y-4.935
X6.39Y-4.155
X6.4562Y-4.4914
X6.62Y-4.25
T2
X5.255Y-3.505
X5.284Y-3.566
X5.355Y-3.405
X5.355Y-3.495
X5.426Y-3.566
X5.455Y-3.505
X5.709Y-4.761
X5.709Y-5.111
X5.78Y-4.69
X5.78Y-5.04
X5.851Y-4.761
X5.851Y-5.111
X6.284Y-4.761
X6.284Y-5.111
X6.355Y-4.69
X6.355Y-5.04
X6.426Y-4.761
X6.426Y-5.111
T3
X4.79Y-2.79
X4.84Y-2.45
X4.84Y-2.55
X5.08Y-4.38
X5.09Y-2.73
X5.09Y-2.83
X5.09Y-2.93
X5.09Y-3.03
X5.09Y-3.13
X5.09Y-3.23
X5.09Y-3.33
X5.09Y-3.43
X5.09Y-3.53
X5.09Y-3.63
X5.09Y-3.77
X5.09Y-3.87
X5.09Y-3.97
X5.09Y-4.07
X5.61Y-2.73
X5.61Y-2.83
X5.61Y-2.93
X5.61Y-3.03
X5.61Y-3.13
X5.61Y-3.23
X5.61Y-3.33
X5.61Y-3.43
X5.61Y-3.53
X5.61Y-3.63
X6.38Y-2.5
X6.62Y-4.46
X6.62Y-4.56
X6.62Y-4.66
X6.62Y-4.76
X6.62Y-4.86
X6.62Y-4.96
X6.67Y-4.09
T4
X4.79Y-2.89
X4.79Y-2.99
X4.79Y-3.09
X4.79Y-3.19
X4.79Y-3.29
X4.79Y-3.39
X4.79Y-3.49
X4.79Y-3.59
X4.79Y-3.69
X4.79Y-3.79
X4.79Y-3.89
X4.79Y-3.99
X4.79Y-4.09
X4.89Y-2.79
X4.89Y-2.89
X4.89Y-2.99
X4.89Y-3.09
X4.89Y-3.19
X4.89Y-3.29
X4.89Y-3.39
X4.89Y-3.49
X4.89Y-3.59
X4.89Y-3.69
X4.89Y-3.79
X4.89Y-3.89
X4.89Y-3.99
X4.89Y-4.09
X5.08Y-2.5
X5.08Y-2.6
X5.08Y-4.28
X5.18Y-2.5
X5.18Y-2.6
X5.18Y-4.28
X5.18Y-4.38
X5.28Y-2.5
X5.28Y-2.6
X5.28Y-4.28
X5.28Y-4.38
X5.38Y-2.5
X5.38Y-2.6
X5.38Y-4.28
X5.38Y-4.38
X5.48Y-2.5
X5.48Y-2.6
X5.48Y-4.28
X5.48Y-4.38
X5.58Y-2.5
X5.58Y-2.6
X5.58Y-4.28
X5.58Y-4.38
X5.68Y-2.5
X5.68Y-2.6
X5.68Y-4.28
X5.685Y-4.38
X5.78Y-2.5
X5.78Y-2.6
X5.78Y-4.28
X5.78Y-4.38
X5.88Y-2.5
X5.88Y-2.6
X5.88Y-4.28
X5.88Y-4.38
X5.98Y-2.5
X5.98Y-2.6
X5.98Y-4.28
X5.98Y-4.38
X6.08Y-2.5
X6.08Y-2.6
X6.08Y-4.28
X6.08Y-4.38
X6.18Y-2.5
X6.18Y-2.6
X6.18Y-4.28
X6.18Y-4.38
X6.28Y-2.5
X6.28Y-2.6
X6.28Y-4.28
X6.28Y-4.38
X6.38Y-2.6
X6.38Y-4.28
X6.38Y-4.38
X6.57Y-2.79
X6.57Y-2.89
X6.57Y-2.99
X6.57Y-3.09
X6.57Y-3.19
X6.57Y-3.29
X6.57Y-3.39
X6.57Y-3.49
X6.57Y-3.59
X6.57Y-3.69
X6.57Y-3.79
X6.57Y-3.89
X6.57Y-3.99
X6.57Y-4.09
X6.67Y-2.79
X6.67Y-2.89
X6.67Y-2.99
X6.67Y-3.09
X6.67Y-3.19
X6.67Y-3.29
X6.67Y-3.39
X6.67Y-3.49
X6.67Y-3.59
X6.67Y-3.69
X6.67Y-3.79
X6.67Y-3.89
X6.67Y-3.99
T0
M30
